<svg xmlns="http://www.w3.org/2000/svg" width="114" height="66" viewBox="0 0 114 66">
  <path fill="#CBA35C" fill-rule="evenodd" d="M54.093 27.697c-1.203 2.15-2.172 4-2.564 6.436-.72 4.452 3.65 4.42 6.99.638.44-.5.71-1.12 1.02-1.72 0 0-6.3.63-5.45-5.35zm47.833 5.003s6.816-3.954 5.166-6.393c-.7-1.034-4.78.444-5.166 6.393zm-40.212-7.46c-.54-.652-1.974-1.52-4.263.844-.77.797-1.2 2.146-.78 3.19.27.668 1.79 1.93 3.33 1.195 2.2-1.05 2.57-4.21 1.72-5.23zm-2.506-2.417c.554-.165 1.112-.394 1.69-.385 3.78.058 4.228 3.3 3.596 6.37 1.312-.513 4.814-3.263 5.876-3.956 2.1-1.37 3.23-.663 3.223 1.84-.003 1.27-.094 2.538-.206 3.802 1.734-2.35 3.678-5.25 6.54-6.428 2.183-.9 4.047.447 4.41 2.682.164 1 .19 2.02.177 3.033 1.313-1.17 4.395-5.94 8.4-5.89 7.11.09-1.646 12.43 1.44 12.41 2.086-.01 3.477-1.39 4.692-2.12-.01-4.22 1.604-6.7 2.283-7.67 1.48-2.12 5.1-4.03 7.54-2.51 1.71 1.07 1.55 3.92.99 5.23-1.34 3.11-4.92 4.62-7.55 6.43.52 2.71 4.14 5.52 9.08 3.46 2.53-1.05 3.5.8 1.62 1.96-5.54 3.41-12.03.615-13.27-3.6 0 .016-2.71 1.667-5.03 2.02-3.37.514-5.38-1.496-4.29-4.34 1.75-4.59 5.43-14.034-3.9-3.082-2.55 2.985-3.38 6.53-4.53 6.544-1.29.014-1.45-1.88-1.45-2.284 0-1.318 2.613-8.9.25-9.24-2.36-.34-4.28 3.75-4.88 4.734-1.16 1.914-3.3 5.9-4.434 8.27-.93 1.946-2.473.55-2.33-1.7.14-2.257 1.077-4.49 1.344-6.73.097-.788.26-1.566.3-2.356.016-.26.09-.876-.14-.764-2.61 1.238-5.055 2.815-7.484 4.383-1.568 3.2-4.34 6.06-7.736 7.37-3.82 1.47-6.68-.376-6.85-4.21-.26-5.78 4.97-12.906 8.137-14.51.36-.18 1.62-.286 1.967.05.32.3.42.78.51 1.21zM.028 30.635S-.48 29.33 2.834 29.33s15.46-.477 15.46-.477 1.283-.082 1.932-2.897c.65-2.816 2.708-11.77 2.708-11.77s.348-1.197 2.098-1.197 1.17 1.27 1.17 2.28-2.93 13.36-2.93 13.36l16.902-.76s2.194.09 2.824-2.11c.63-2.2 6.815-24.38 6.815-24.38S51.023-.89 52.3.39c1.28 1.28.708 1.795.708 3.246 0 1.45-6.877 23.487-6.877 23.487s1.22.61 1.22 1.795c0 1.184-1.27 1.968-2.23 1.968-.95 0-9.13 33.22-9.13 33.22s-.24 1.538-2.22 1.538c-1.97 0-1.08-3.674-.8-4.58.29-.905 8.31-29.905 8.31-29.905l-18.68.6-3.2 11.95s-.2 1.46-2.26 1.46-1.66-2.04-1.32-3.26c.346-1.22 3.09-9.97 3.09-9.97s-16.302.53-17.24.554c-.935.023-1.45-.18-1.62-1.883z"/>
</svg>
